# xmcd
#
# Track frame offsets:
#	150
#	3301
#	24859
#	47482
#	79251
#	124126
#	140295
#	157779
#	179648
#	190263
#
# Disc length: 3025 seconds
#
# Revision: 1
# Processed by: cddbd v1.5.2PL0 Copyright (c) Steve Scherf et al.
# Submitted via: audiograbber 1.83.01
#
DISCID=730bcf0a
DTITLE=The Young Gods - Everybody Knows
DYEAR=2010
DGENRE=electronic rock
TTITLE0=Sirius Business
TTITLE1=Blooming
TTITLE2=No Land's Man
TTITLE3=Mr. Sunshine
TTITLE4=Miles Away
TTITLE5=Two To Tango
TTITLE6=Introducing
TTITLE7=Tenter Le Grillage
TTITLE8=Aux Anges
TTITLE9=Once Again
EXTD=
EXTT0=
EXTT1=
EXTT2=
EXTT3=
EXTT4=
EXTT5=
EXTT6=
EXTT7=
EXTT8=
EXTT9=
PLAYORDER=
